<?xml version="1.0" encoding="UTF-8"?>
<svg enable-background="new 0 0 16 16" version="1.1" viewBox="0 0 16 16" xmlns="http://www.w3.org/2000/svg" xmlns:cc="http://creativecommons.org/ns#" xmlns:dc="http://purl.org/dc/elements/1.1/" xmlns:rdf="http://www.w3.org/1999/02/22-rdf-syntax-ns#">
 <title>Accordion</title>
 <metadata>
  <rdf:RDF>
   <cc:Work rdf:about="">
    <dc:format>image/svg+xml</dc:format>
    <dc:type rdf:resource="http://purl.org/dc/dcmitype/StillImage"/>
    <dc:title>Accordion</dc:title>
   </cc:Work>
  </rdf:RDF>
 </metadata>
 <path d="m16 15h-16v-15h16v15z" fill="#F6F6F6"/>
 <path d="M15 2h-14v-1h14v1zm0 11h-14v1h14v-1zm-4-9h-7v1h7v-1zm-2 6h-5v1h5v-1zm2-3h-7v1h7v-1zm-8-3h-1v1h1v-1zm0 3h-1v1h1v-1zm0 3h-1v1h1v-1zm11.146-1.061l-1.146 1.147v-6.086h-1v6.086l-1.146-1.146-.707.707 2.353 2.353 2.354-2.354-.708-.707z" fill="#424242"/>
</svg>
