<?xml version="1.0" encoding="UTF-8"?>
<svg version="1.1" viewBox="0 0 16 16" xmlns="http://www.w3.org/2000/svg" xmlns:cc="http://creativecommons.org/ns#" xmlns:dc="http://purl.org/dc/elements/1.1/" xmlns:rdf="http://www.w3.org/1999/02/22-rdf-syntax-ns#">
 <metadata>
  <rdf:RDF>
   <cc:Work rdf:about="">
    <dc:format>image/svg+xml</dc:format>
    <dc:type rdf:resource="http://purl.org/dc/dcmitype/StillImage"/>
    <dc:title>Collapsible</dc:title>
   </cc:Work>
  </rdf:RDF>
 </metadata>
 <defs>
  <style>.icon-canvas-transparent,.icon-vs-out{fill:#f6f6f6}.icon-canvas-transparent{opacity:0}.a{fill:#424242}.b{fill:#f0eff1}.icon-vs-action-blue{fill:#00539c}</style>
 </defs>
 <title>Collapsible</title>
 <path class="icon-canvas-transparent" d="M0 0h16v16H0z"/>
 <path class="icon-vs-out" d="M14 5v6h2v5h-5v-2H5v2H0v-5h2V5H0V0h5v2h6V0h5v5z"/>
 <path class="a" d="M12 4h1v8h-1zM4 3v1h8V3zm-1 9h1V4H3zm9 0H4v1h8z"/>
 <path class="b" d="M4 4h8v8H4z"/>
 <path class="icon-vs-action-blue" d="m4 4h-3v-1h1.293l-1.293-1.293 0.7071-0.707 1.2929 1.2929v-1.2929h1zm10.293-3-1.2929 1.2929v-1.2929h-1v3h3v-1h-1.293l1.293-1.293zm0.70711 11h-3v3h1v-1.293l1.293 1.293 0.707-0.7071-1.2929-1.2929h1.2929zm-11 0h-3v1h1.2929l-1.2929 1.2929 0.707 0.70711 1.293-1.293v1.293h1z"/>
</svg>
