<?xml version="1.0" encoding="UTF-8"?>
<svg version="1.1" viewBox="0 0 16 16" xmlns="http://www.w3.org/2000/svg" xmlns:cc="http://creativecommons.org/ns#" xmlns:dc="http://purl.org/dc/elements/1.1/" xmlns:rdf="http://www.w3.org/1999/02/22-rdf-syntax-ns#">
 <metadata>
  <rdf:RDF>
   <cc:Work rdf:about="">
    <dc:format>image/svg+xml</dc:format>
    <dc:type rdf:resource="http://purl.org/dc/dcmitype/StillImage"/>
    <dc:title>EButton</dc:title>
   </cc:Work>
  </rdf:RDF>
 </metadata>
 <defs>
  <style>.icon-canvas-transparent,.icon-vs-out{fill:#f6f6f6;}.icon-canvas-transparent{opacity:0;}.icon-vs-bg{fill:#424242;}</style>
 </defs>
 <title>EButton</title>
 <path class="icon-vs-out" d="M3.61,14A2.613,2.613,0,0,1,1,11.39V3.61A2.613,2.613,0,0,1,3.61,1H13.39A2.613,2.613,0,0,1,16,3.61V11.39A2.613,2.613,0,0,1,13.39,14Z"/>
 <path class="icon-canvas-transparent" d="M16,16H0V0H16Z"/>
 <path class="icon-vs-bg" d="M7.63,6.361a1.076,1.076,0,0,0-.424-.295,1.636,1.636,0,0,0-.608-.1A2.21,2.21,0,0,0,6.229,6a3.274,3.274,0,0,0-.362.086,2.906,2.906,0,0,0-.31.109,1.367,1.367,0,0,0-.213.113v.768a1.939,1.939,0,0,1,.544-.312,1.742,1.742,0,0,1,.627-.117.649.649,0,0,1,.494.186.861.861,0,0,1,.174.6l-1.03.154a1.64,1.64,0,0,0-.525.152,1.1,1.1,0,0,0-.357.279,1.077,1.077,0,0,0-.205.381A1.562,1.562,0,0,0,5,8.857a1.4,1.4,0,0,0,.074.463,1,1,0,0,0,.216.361.957.957,0,0,0,.352.234A1.26,1.26,0,0,0,6.12,10a1.118,1.118,0,0,0,.6-.16,1.3,1.3,0,0,0,.44-.463h.014v.529h.785V7.469a2.223,2.223,0,0,0-.083-.637A1.278,1.278,0,0,0,7.63,6.361Zm-.446,2.02a1.137,1.137,0,0,1-.059.365.892.892,0,0,1-.165.295.806.806,0,0,1-.256.2.76.76,0,0,1-.337.072.678.678,0,0,1-.242-.041.531.531,0,0,1-.185-.113.491.491,0,0,1-.116-.172.582.582,0,0,1-.041-.219.936.936,0,0,1,.027-.232.427.427,0,0,1,.1-.18.546.546,0,0,1,.2-.133,1.365,1.365,0,0,1,.32-.078l.761-.109ZM11.7,6.516A1.214,1.214,0,0,0,11.3,6.1a1.033,1.033,0,0,0-.573-.153A1.047,1.047,0,0,0,10.394,6a1.012,1.012,0,0,0-.278.146,1.187,1.187,0,0,0-.226.223,2.006,2.006,0,0,0-.181.289H9.7V4H9V9.887h.7V9.4H9.71a1.471,1.471,0,0,0,.151.229,1.018,1.018,0,0,0,.191.186.859.859,0,0,0,.238.121.921.921,0,0,0,.292.043,1.145,1.145,0,0,0,.609-.16,1.345,1.345,0,0,0,.443-.443,2.16,2.16,0,0,0,.273-.672A3.7,3.7,0,0,0,12,7.861a3.558,3.558,0,0,0-.074-.734A2.058,2.058,0,0,0,11.7,6.516Zm-.477,1.953a1.4,1.4,0,0,1-.168.445.746.746,0,0,1-.264.266.682.682,0,0,1-.35.092.615.615,0,0,1-.3-.076A.745.745,0,0,1,9.9,8.988a.987.987,0,0,1-.154-.307A1.254,1.254,0,0,1,9.691,8.3V7.795a1.678,1.678,0,0,1,.061-.465,1.175,1.175,0,0,1,.168-.359.774.774,0,0,1,.257-.232.676.676,0,0,1,.331-.082.649.649,0,0,1,.327.082.718.718,0,0,1,.244.238,1.221,1.221,0,0,1,.15.377,2.176,2.176,0,0,1,.052.494A2.878,2.878,0,0,1,11.222,8.469Z"/>
 <path class="icon-vs-bg" d="M13.39,3a.611.611,0,0,1,.61.61V11.39a.611.611,0,0,1-.61.61H3.61A.611.611,0,0,1,3,11.39V3.61A.611.611,0,0,1,3.61,3H13.39m0-1H3.61A1.61,1.61,0,0,0,2,3.61V11.39A1.61,1.61,0,0,0,3.61,13H13.39A1.61,1.61,0,0,0,15,11.39V3.61A1.61,1.61,0,0,0,13.39,2Z"/>
</svg>
