<?xml version="1.0" encoding="UTF-8"?>
<svg version="1.1" viewBox="0 0 16 16" xmlns="http://www.w3.org/2000/svg" xmlns:cc="http://creativecommons.org/ns#" xmlns:dc="http://purl.org/dc/elements/1.1/" xmlns:rdf="http://www.w3.org/1999/02/22-rdf-syntax-ns#">
 <title>EComboBox</title>
 <metadata>
  <rdf:RDF>
   <cc:Work rdf:about="">
    <dc:format>image/svg+xml</dc:format>
    <dc:type rdf:resource="http://purl.org/dc/dcmitype/StillImage"/>
    <dc:title>EComboBox</dc:title>
   </cc:Work>
  </rdf:RDF>
 </metadata>
 <style>.icon-canvas-transparent{opacity:0;fill:#f6f6f6}.icon-vs-out{fill:#f6f6f6}.icon-vs-bg{fill:#424242}.icon-vs-fg{fill:#f0eff1}.icon-vs-blue{fill:#1ba1e2}.st0{fill:none}.st1{fill:#424242}</style>
 <path id="canvas" class="icon-canvas-transparent" d="M0 0h16v16H0z"/>
 <path id="outline" class="icon-vs-out" d="M16 0v16H2V8H0V0h16z"/>
 <g id="iconBg">
  <path class="st0" d="M12 5l2-2h-4zM4 14h10V7H4v7zm2-6h3v1H6V8zm0 2h6v1H6v-1zm0 2h3v1H6v-1zM3 3h6v3H3z"/>
  <path class="icon-vs-bg" d="M6 8h3v1H6zM6 12h3v1H6zM6 10h6v1H6z"/>
  <path class="st0" d="M6 8h3v1H6zM6 12h3v1H6zM6 10h6v1H6z"/>
  <path class="st0" d="M4 7h10v7H4z"/>
  <path class="icon-vs-bg" d="M14 14H4V7H3v8h12V7h-1z"/>
  <path class="st1" d="m3 3h6v3h-6zm9 2 2-2h-4z"/>
 </g>
 <path id="colorImportance" class="icon-vs-blue" d="M1 1v6h14V1H1zm8 5H3V3h6v3zm3-1l-2-2h4l-2 2z"/>
 <path id="iconFg" class="icon-vs-fg" d="M14 7H4m0 0v7h10V7M6 8h3v1H6V8zm0 2h6v1H6v-1zm0 2h3v1H6v-1zm6-7l-2-2h4l-2 2zM9 6H3V3h6v3z"/>
</svg>
