<?xml version="1.0" encoding="UTF-8"?>
<svg version="1.1" viewBox="0 0 16 16" xmlns="http://www.w3.org/2000/svg" xmlns:cc="http://creativecommons.org/ns#" xmlns:dc="http://purl.org/dc/elements/1.1/" xmlns:rdf="http://www.w3.org/1999/02/22-rdf-syntax-ns#">
 <title>ERadioButton</title>
 <metadata>
  <rdf:RDF>
   <cc:Work rdf:about="">
    <dc:format>image/svg+xml</dc:format>
    <dc:type rdf:resource="http://purl.org/dc/dcmitype/StillImage"/>
    <dc:title>ERadioButton</dc:title>
   </cc:Work>
  </rdf:RDF>
 </metadata>
 <style>.icon-canvas-transparent{opacity:0;fill:#f6f6f6}.icon-vs-out{fill:#f6f6f6}.icon-vs-bg{fill:#424242}.icon-vs-fg{fill:#f0eff1}</style>
 <path id="canvas" class="icon-canvas-transparent" d="M16 16H0V0h16v16z"/>
 <path id="outline" class="icon-vs-out" d="m8 15c-3.86 0-7-3.141-7-7 0-3.86 3.14-7 7-7 3.859 0 7 3.14 7 7 0 3.859-3.141 7-7 7z"/>
 <path id="iconBg" class="icon-vs-bg" d="M8 2C4.688 2 2 4.688 2 8s2.688 6 6 6 6-2.688 6-6-2.687-6-6-6zm0 10a4 4 0 1 1 0-8 4 4 0 0 1 0 8zm2-4a2 2 0 1 1-3.999.001A2 2 0 0 1 10 8z"/>
 <g id="iconFg">
  <path class="icon-vs-fg" d="M8 4a4 4 0 1 0 0 8 4 4 0 0 0 0-8zm0 6a2 2 0 1 1-.001-3.999A2 2 0 0 1 8 10z"/>
 </g>
</svg>
