<?xml version="1.0" encoding="UTF-8"?>
<svg width="16" height="16" version="1.1" xmlns="http://www.w3.org/2000/svg" xmlns:cc="http://creativecommons.org/ns#" xmlns:dc="http://purl.org/dc/elements/1.1/" xmlns:rdf="http://www.w3.org/1999/02/22-rdf-syntax-ns#">
 <title>GlassScrollViewer</title>
 <metadata>
  <rdf:RDF>
   <cc:Work rdf:about="">
    <dc:format>image/svg+xml</dc:format>
    <dc:type rdf:resource="http://purl.org/dc/dcmitype/StillImage"/>
    <dc:title>GlassScrollViewer</dc:title>
   </cc:Work>
  </rdf:RDF>
 </metadata>
 <style type="text/css">.icon-canvas-transparent{opacity:0;fill:#F6F6F6;} .icon-vs-out{fill:#F6F6F6;} .icon-vs-bg{fill:#424242;} .icon-vs-fg{fill:#F0EFF1;}</style>
 <path id="canvas" class="icon-canvas-transparent" d="m16 16h-16v-16h16v16z"/>
 <path id="outline" class="icon-vs-out" d="m0 0h16v15h-16v-15z"/>
 <path id="iconBg" class="icon-vs-bg" d="m1 1v13h14v-5h-5v4h-8v-11h8v4h5v-5h-14zm13 9-1.5 2-1.5-2h3zm-2.983-5 1.483-1.969 1.5 1.969h-2.983zm-1.017 2h5v1h-5v-1z"/>
 <path id="iconFg" class="icon-vs-fg" d="m11 10h3l-1.5 2-1.5-2zm1.5-6.969-1.483 1.969h2.983l-1.5-1.969zm2.5 3.969v-1h-5v-4h-8v11h8v-4h5v-1h-5v-1h5z"/>
</svg>
