<?xml version="1.0" encoding="UTF-8"?>
<svg version="1.1" viewBox="0 0 16 16" xmlns="http://www.w3.org/2000/svg" xmlns:cc="http://creativecommons.org/ns#" xmlns:dc="http://purl.org/dc/elements/1.1/" xmlns:rdf="http://www.w3.org/1999/02/22-rdf-syntax-ns#">
 <title>PasswordBoxPlus</title>
 <metadata>
  <rdf:RDF>
   <cc:Work rdf:about="">
    <dc:format>image/svg+xml</dc:format>
    <dc:type rdf:resource="http://purl.org/dc/dcmitype/StillImage"/>
    <dc:title>PasswordBoxPlus</dc:title>
   </cc:Work>
  </rdf:RDF>
 </metadata>
 <style>.st0{opacity:0}.st0,.st1{fill:#f6f6f6}.st2{fill:#424242}.st3{fill:#f0eff1}</style>
 <g id="outline">
  <path class="st0" d="M0 0h16v16H0z"/>
  <path class="st1" d="M16 14H0V1h16v13z"/>
 </g>
 <g id="icon_x5F_bg">
  <path class="st2" d="M4 5h1v1H4zM11 9h1v1h-1zM9 9h1v1H9zM9 5h1v1H9zM11 5h1v1h-1zM11 8h1V7h-1V6h-1v1H9v1h1v1h1zM4 9h1v1H4zM6 9h1v1H6zM6 5h1v1H6zM6 8h1V7H6V6H5v1H4v1h1v1h1z"/>
  <path class="st2" d="M1 2v11h14V2H1zm13 10H2V3h12v9z"/>
 </g>
 <path id="icon_x5F_fg" class="st3" d="M2 3v9h12V3H2zm2 5V7h1V6H4V5h1v1h1V5h1v1H6v1h1v1H6v1h1v1H6V9H5v1H4V9h1V8H4zm8-2h-1v1h1v1h-1v1h1v1h-1V9h-1v1H9V9h1V8H9V7h1V6H9V5h1v1h1V5h1v1z"/>
</svg>
