<?xml version="1.0" encoding="UTF-8"?>
<svg version="1.1" viewBox="0 0 16 16" xmlns="http://www.w3.org/2000/svg" xmlns:cc="http://creativecommons.org/ns#" xmlns:dc="http://purl.org/dc/elements/1.1/" xmlns:rdf="http://www.w3.org/1999/02/22-rdf-syntax-ns#">
 <metadata>
  <rdf:RDF>
   <cc:Work rdf:about="">
    <dc:format>image/svg+xml</dc:format>
    <dc:type rdf:resource="http://purl.org/dc/dcmitype/StillImage"/>
    <dc:title>Switcher</dc:title>
   </cc:Work>
  </rdf:RDF>
 </metadata>
 <defs>
  <style>.icon-canvas-transparent,.icon-vs-out{fill:#f6f6f6}.icon-canvas-transparent{opacity:0}.icon-vs-bg{fill:#424242}.icon-vs-fg{fill:#f0eff1}.icon-f12-start-positive-2{fill:#009e49}</style>
 </defs>
 <title>Switcher</title>
 <path class="icon-canvas-transparent" d="M16 16H0V0h16z"/>
 <path class="icon-vs-out" d="M2.669 14A2.672 2.672 0 0 1 0 11.331V4.669A2.672 2.672 0 0 1 2.669 2h10.662A2.672 2.672 0 0 1 16 4.669v6.662A2.672 2.672 0 0 1 13.331 14z"/>
 <path class="icon-vs-bg" d="M13.331 4a.67.67 0 0 1 .669.669v6.662a.67.67 0 0 1-.669.669H2.669A.67.67 0 0 1 2 11.331V4.669A.67.67 0 0 1 2.669 4h10.662m0-1H2.669A1.669 1.669 0 0 0 1 4.669v6.662A1.669 1.669 0 0 0 2.669 13h10.662A1.669 1.669 0 0 0 15 11.331V4.669A1.669 1.669 0 0 0 13.331 3z"/>
 <path class="icon-vs-fg" d="M2 11.366V4.654A.654.654 0 0 1 2.654 4H8v8H2.634A.634.634 0 0 1 2 11.366z"/>
 <path class="icon-f12-start-positive-2" d="M13.366 12H8V4h5.346a.654.654 0 0 1 .654.654v6.712a.634.634 0 0 1-.634.634z"/>
</svg>
