<?xml version="1.0" encoding="UTF-8"?>
<svg version="1.1" viewBox="0 0 16 16" xmlns="http://www.w3.org/2000/svg" xmlns:cc="http://creativecommons.org/ns#" xmlns:dc="http://purl.org/dc/elements/1.1/" xmlns:rdf="http://www.w3.org/1999/02/22-rdf-syntax-ns#">
 <title>TextBoxPlus</title>
 <metadata>
  <rdf:RDF>
   <cc:Work rdf:about="">
    <dc:format>image/svg+xml</dc:format>
    <dc:type rdf:resource="http://purl.org/dc/dcmitype/StillImage"/>
    <dc:title>TextBoxPlus</dc:title>
   </cc:Work>
  </rdf:RDF>
 </metadata>
 <style>.icon-canvas-transparent{opacity:0;fill:#f6f6f6}.icon-vs-out{fill:#f6f6f6}.icon-vs-bg,.st0{fill:#424242}</style>
 <path id="canvas" class="icon-canvas-transparent" d="M16 16H0V0h16v16z"/>
 <path id="outline" class="icon-vs-out" d="M16 15H1V1h15v14z"/>
 <path id="iconBg" class="icon-vs-bg" d="M2 2v12h13V2H2zm12 11H3V3h11v10z"/>
 <g id="iconFg">
  <path class="st0" d="M13 10.985h-1V5h1v5.985zM7.021 7.702c.061.202.09.435.09.694v2.657h-.856v-.577H6.24c-.131.222-.291.39-.479.505a1.22 1.22 0 0 1-.658.175c-.197 0-.369-.03-.521-.092a1.055 1.055 0 0 1-.383-.255 1.082 1.082 0 0 1-.235-.395 1.524 1.524 0 0 1-.081-.505c0-.179.023-.347.071-.502a1.14 1.14 0 0 1 .222-.415c.101-.124.231-.224.39-.305.16-.081.351-.136.573-.166l1.124-.168c0-.3-.063-.517-.189-.653-.129-.135-.308-.203-.54-.203-.233 0-.461.042-.684.128-.221.085-.42.198-.593.341v-.837c.056-.039.132-.079.232-.124a3.27 3.27 0 0 1 .732-.212c.139-.023.273-.036.403-.036.255 0 .477.036.663.11.187.074.341.181.462.321.12.141.211.313.272.514zm-.759 1.312l-.83.119a1.448 1.448 0 0 0-.349.085.602.602 0 0 0-.213.145.454.454 0 0 0-.106.195c-.019.075-.03.16-.03.254 0 .085.015.164.044.238a.548.548 0 0 0 .329.312.757.757 0 0 0 .264.044.83.83 0 0 0 .367-.078.883.883 0 0 0 .279-.218.98.98 0 0 0 .18-.321c.043-.125.065-.257.065-.398v-.377zm2.952-1.819c.073-.094.154-.175.246-.242a1.098 1.098 0 0 1 .67-.217c.241 0 .45.055.625.168.173.11.317.261.43.453.112.192.194.413.248.667.054.253.081.52.081.801 0 .333-.034.636-.1.919a2.35 2.35 0 0 1-.298.732 1.448 1.448 0 0 1-.483.483 1.247 1.247 0 0 1-.664.175.997.997 0 0 1-.318-.047.91.91 0 0 1-.26-.132 1.142 1.142 0 0 1-.209-.202 1.629 1.629 0 0 1-.165-.249h-.014v.527h-.76V4.614h.76V7.51h.014c.058-.115.126-.219.197-.315zm.032.658c-.079.11-.14.24-.184.392s-.065.321-.065.506v.551c0 .148.021.287.062.415.04.128.096.24.168.334.073.097.16.173.259.227a.733.733 0 0 0 .709-.018.803.803 0 0 0 .287-.289c.08-.128.141-.29.184-.486.044-.195.066-.421.066-.676 0-.2-.02-.379-.057-.539a1.333 1.333 0 0 0-.164-.411.706.706 0 0 0-.623-.35.735.735 0 0 0-.361.09.829.829 0 0 0-.281.254z"/>
 </g>
</svg>
