<?xml version="1.0" encoding="UTF-8"?>
<svg width="256" height="256" version="1.1" viewBox="0 0 256 256" xmlns="http://www.w3.org/2000/svg" xmlns:cc="http://creativecommons.org/ns#" xmlns:dc="http://purl.org/dc/elements/1.1/" xmlns:rdf="http://www.w3.org/1999/02/22-rdf-syntax-ns#" xmlns:xlink="http://www.w3.org/1999/xlink">
 <title>FullControls</title>
 <defs>
  <linearGradient id="linearGradient845" x1="-32.128" x2="35.605" y1="6.4256" y2="74.159" gradientTransform="matrix(3.6909 0 0 3.6909 121.58 -20.717)" gradientUnits="userSpaceOnUse">
   <stop stop-color="#a541ff" offset="0"/>
   <stop stop-color="#3fbbfe" offset="1"/>
  </linearGradient>
 </defs>
 <metadata>
  <rdf:RDF>
   <cc:Work rdf:about="">
    <dc:format>image/svg+xml</dc:format>
    <dc:type rdf:resource="http://purl.org/dc/dcmitype/StillImage"/>
    <dc:title>FullControls</dc:title>
    <cc:license rdf:resource="http://creativecommons.org/licenses/by/4.0/"/>
    <dc:creator>
     <cc:Agent>
      <dc:title>devpelux</dc:title>
     </cc:Agent>
    </dc:creator>
    <dc:description>FullControls icon.</dc:description>
   </cc:Work>
   <cc:License rdf:about="http://creativecommons.org/licenses/by/4.0/">
    <cc:permits rdf:resource="http://creativecommons.org/ns#Reproduction"/>
    <cc:permits rdf:resource="http://creativecommons.org/ns#Distribution"/>
    <cc:requires rdf:resource="http://creativecommons.org/ns#Notice"/>
    <cc:requires rdf:resource="http://creativecommons.org/ns#Attribution"/>
    <cc:permits rdf:resource="http://creativecommons.org/ns#DerivativeWorks"/>
   </cc:License>
  </rdf:RDF>
 </metadata>
 <rect id="rectfc" x="3" y="3" width="250" height="250" rx="50" ry="50" fill="#0c2954" stroke="url(#linearGradient845)" stroke-width="6" style="paint-order:normal"/>
 <g id="textfc" fill="#fff" stroke-width=".26458" aria-label="fc">
  <path d="m80.93 188.04v-76.875h-13.984v-7.6562h13.984v-10.234q0-12.969 6.5625-19.922 6.6406-6.9531 18.438-6.9531 5.3125 0 9.9219 1.3281l-0.70312 7.8125q-3.9062-0.9375-8.5156-0.9375-7.7344 0-12.031 4.8438-4.2969 4.7656-4.2969 13.594v10.469h20.156v7.6562h-20.156v76.875z"/>
  <path d="m156.55 181.71q9.7656 0 16.328-5.4688 6.6406-5.5469 7.1875-14.297h8.9844q-0.39063 7.7344-4.8438 14.141-4.4531 6.3281-11.875 9.9219-7.3438 3.5938-15.781 3.5938-16.641 0-26.406-11.562-9.6875-11.562-9.6875-31.094v-2.8125q0-12.5 4.375-22.109 4.375-9.6094 12.5-14.844 8.2031-5.2344 19.141-5.2344 13.906 0 22.891 8.2812 9.0625 8.2812 9.6875 21.797h-8.9844q-0.625-9.9219-7.1875-16.016-6.4844-6.0938-16.406-6.0938-12.656 0-19.688 9.1406-6.9531 9.1406-6.9531 25.625v2.7344q0 16.172 6.9531 25.234 7.0312 9.0625 19.766 9.0625z"/>
 </g>
</svg>
